<?xml version="1.0" encoding="UTF-8" standalone="no"?>
<!-- Created with Inkscape (http://www.inkscape.org/) -->

<svg
   version="1.1"
   id="svg1"
   width="256"
   height="256"
   viewBox="0 0 256 256"
   sodipodi:docname="logo.svg"
   inkscape:version="1.4.2 (ebf0e940d0, 2025-05-08)"
   xmlns:inkscape="http://www.inkscape.org/namespaces/inkscape"
   xmlns:sodipodi="http://sodipodi.sourceforge.net/DTD/sodipodi-0.dtd"
   xmlns:xlink="http://www.w3.org/1999/xlink"
   xmlns="http://www.w3.org/2000/svg"
   xmlns:svg="http://www.w3.org/2000/svg">
  <sodipodi:namedview
     id="namedview1"
     pagecolor="#ffffff"
     bordercolor="#000000"
     borderopacity="0.25"
     inkscape:showpageshadow="2"
     inkscape:pageopacity="0.0"
     inkscape:pagecheckerboard="0"
     inkscape:deskcolor="#d1d1d1"
     inkscape:zoom="3.3242188"
     inkscape:cx="84.831962"
     inkscape:cy="113.86134"
     inkscape:window-width="1803"
     inkscape:window-height="1125"
     inkscape:window-x="0"
     inkscape:window-y="0"
     inkscape:window-maximized="1"
     inkscape:current-layer="svg1" />
  <defs
     id="defs1">
    <linearGradient
       id="linearGradient4">
      <stop
         style="stop-color:#2727d8;stop-opacity:1;"
         offset="0"
         id="stop6" />
      <stop
         style="stop-color:#171782;stop-opacity:1;"
         offset="1"
         id="stop5" />
    </linearGradient>
    <radialGradient
       xlink:href="#linearGradient4"
       id="radialGradient6"
       cx="128"
       cy="128"
       fx="128"
       fy="128"
       r="96"
       gradientTransform="matrix(1,0,0,1.0284084,0,-3.6362734)"
       gradientUnits="userSpaceOnUse" />
  </defs>
  <rect
     style="fill:#000000;stroke:none"
     id="rect2"
     width="256"
     height="256"
     x="0"
     y="0" />
  <g
     id="g1"
     transform="matrix(0.88541667,0,0,0.88541667,14.666665,4.666668)"
     style="fill:#8800aa">
    <path
       style="mix-blend-mode:normal;fill:#8800aa;fill-opacity:1;fill-rule:nonzero;stroke:none;stroke-width:0.357613"
       d="m 41.989302,226.33035 c -6.092293,-1.6849 -6.484153,-5.99689 -1.746605,-19.21974 2.310216,-6.44797 5.444598,-13.5614 8.158212,-18.51485 1.147432,-2.09454 3.34298,-6.22215 4.878999,-9.17246 1.536032,-2.95033 3.842487,-7.21489 5.125473,-9.47679 2.5766,-4.54261 10.359158,-20.34607 12.583857,-25.55313 1.602678,-3.7512 1.608846,-4.90122 0.03436,-6.4097 -1.744589,-1.67143 -3.585409,-2.05029 -11.668074,-2.40144 -16.2377,-0.70547 -21.351416,-2.28397 -25.081549,-7.74212 -1.79426,-2.62547 -2.271259,-4.12263 -2.273965,-7.13743 -0.0055,-5.40056 2.521912,-11.4705 6.77954,-16.28615 4.532697,-5.126767 16.458201,-12.727226 27.549462,-17.558027 11.979815,-5.217821 20.101681,-8.542067 25.410361,-10.400349 0.89594,-0.313622 2.239213,-1.195168 2.985059,-1.958977 l 1.356084,-1.388751 0.491999,-6.922817 c 0.786923,-11.072783 1.503578,-14.657489 3.968545,-19.850581 2.3942,-5.044053 5.31459,-8.235722 10.93571,-11.951543 5.52545,-3.652584 10.50034,-5.14188 17.07718,-5.11227 6.30455,0.02841 11.60057,1.733862 16.73975,5.390694 5.7158,4.067101 9.08671,8.285027 11.14754,13.948545 1.59489,4.383061 2.08072,6.981779 3.01456,16.124979 0.88498,8.664916 1.01289,9.067206 3.3994,10.691812 0.63589,0.432874 2.04851,1.046467 3.13916,1.363523 2.17299,0.631706 6.22116,2.269527 18.16867,7.350766 21.87913,9.305131 32.87103,16.949496 37.20003,25.870916 2.14726,4.4252 2.79007,7.12233 2.60752,10.94063 -0.13026,2.72576 -0.29332,3.33068 -1.45894,5.415 -2.41363,4.31603 -6.05903,6.64809 -11.88515,7.60325 -1.77018,0.29021 -6.35659,0.70327 -10.192,0.91789 -9.04403,0.50611 -11.92194,0.90294 -13.66902,1.88485 -1.4614,0.82135 -2.42365,2.19293 -2.42365,3.45461 0,0.91426 1.83254,5.03581 6.53422,14.69601 3.43272,7.05299 4.61552,9.3095 9.2788,17.70191 0.87431,1.5735 2.76775,5.11391 4.20761,7.86753 1.43988,2.75364 3.65188,6.91345 4.91557,9.24404 2.87116,5.29516 5.59452,11.52081 7.73634,17.68525 4.14766,11.93762 4.13689,15.77344 -0.0498,17.70747 -1.68112,0.77659 -1.81429,0.78076 -28.0761,0.88074 -25.13593,0.0956 -26.45841,0.0687 -27.89395,-0.56927 -2.3533,-1.04583 -3.66383,-2.36611 -6.22969,-6.27619 -6.95323,-10.59587 -10.75156,-16.14303 -15.70576,-22.937 -7.72102,-10.58826 -8.05802,-11.0074 -9.4585,-11.76409 -1.20617,-0.6517 -1.30627,-0.65368 -2.57644,-0.0511 -2.07848,0.98631 -13.8071,16.94472 -25.50435,34.70219 -2.936885,4.45846 -4.735108,6.20914 -7.216507,7.0258 -1.9713,0.64877 -50.023001,0.81982 -52.313996,0.18622 z"
       id="path1" />
  </g>
</svg>
